<svg width="200" viewBox="0 0 426 125" fill="none" xmlns="http://www.w3.org/2000/svg">
<path opacity="0.75" d="M67.9902 1.9847C66.3336 9.72712 66.2888 17.7381 67.4082 25.6147C68.5275 33.4914 70.9453 41.2338 74.3928 48.4392C77.8403 55.6893 82.3176 62.4024 87.6456 68.3099C93.0184 74.2174 99.1971 79.3641 106.182 83.034L93.2423 99.2349C86.9293 92.298 81.0192 85.3164 75.736 77.8425C70.4527 70.4134 65.7963 62.6262 61.8115 54.481C57.8267 46.3805 54.5583 37.8773 51.9167 29.1503C49.2751 20.3785 47.3498 11.3383 45.6484 2.02945H67.9902V1.9847Z" fill="url(#paint0_linear_5_12155)"/>
<path opacity="0.75" d="M67.4796 1.9847C65.6886 11.334 63.7634 20.3253 61.077 29.0931C58.4354 37.8161 55.1669 46.3154 51.2269 54.4568C47.2869 62.5983 42.6305 70.3819 37.3472 77.8076C32.1088 85.2781 26.154 92.2565 19.8409 99.2349L6.94629 83.0414C13.9309 79.3733 20.1544 74.229 25.5271 68.3242C30.8999 62.4194 35.3772 55.6646 38.8248 48.4626C42.2723 41.2605 44.69 33.5217 45.8094 25.6039C46.9287 17.7308 46.8839 9.67882 45.1378 1.9847H67.4796Z" fill="url(#paint1_linear_5_12155)"/>
<path opacity="0.75" d="M0 63.298C9.37448 60.5679 18.749 58.2781 28.1687 56.8249C37.5885 55.3278 47.0988 54.5792 56.6092 54.5792C66.1195 54.5792 75.5845 55.3718 85.0043 56.913C94.4241 58.4102 103.753 60.7 113.128 63.4301L104.433 82.2328C97.4583 77.8294 89.6689 74.6589 81.5625 72.5012C73.456 70.3876 65.0326 69.2867 56.6092 69.3307C48.1857 69.3307 39.7623 70.4316 31.6558 72.5893C23.5494 74.747 15.76 77.9175 8.83103 82.3649L0 63.298Z" fill="url(#paint2_linear_5_12155)"/>
<path d="M19.5265 100.227L21.8317 97.65C11.7068 88.9235 4.83642 76.5346 3.39001 62.518L0 63.4675C1.67241 78.1171 8.90443 91.0938 19.5265 100.227Z" fill="#95005A"/>
<path d="M113.128 63.5151L109.731 62.518C108.236 76.523 101.396 88.8963 91.2959 97.6438L93.6059 100.227C104.205 91.0718 111.406 78.1546 113.128 63.5151Z" fill="#DE0000"/>
<path d="M44.6553 0.99235L45.288 3.9694C48.7681 3.33429 52.3386 3.01674 55.9995 3.01674C59.7056 3.01674 63.3213 3.33429 66.8013 3.9694L67.4793 0.99235C63.7732 0.357246 59.9315 9.53674e-07 56.0447 9.53674e-07C52.1578 9.53674e-07 48.3614 0.357246 44.6553 0.99235Z" fill="#DE0000"/>
<path d="M2.24538 57.9155C2.24538 57.6894 2.24538 57.4634 2.24538 57.2373C2.24538 32.6845 18.5019 11.93 40.6863 5.19267L40.327 3.33878L40.2821 3.02226V2.97704C17.02 9.89522 0 31.5993 0 57.2373C0 57.6894 0 58.1416 0 58.5486C0.763429 58.3677 1.52686 58.1416 2.24538 57.9155Z" fill="#D3D3D3"/>
<path d="M72.4414 5.14568C94.6544 11.9227 110.875 32.6604 110.875 57.1028C110.875 57.3739 110.875 57.5998 110.875 57.8709C111.145 57.9612 111.37 58.0064 111.641 58.0968L113.128 58.5486C113.128 58.0968 113.128 57.5998 113.128 57.148C113.128 31.576 96.1413 9.93477 72.892 2.97704L72.4414 5.14568Z" fill="#D3D3D3"/>
<path d="M87.7862 101.22C78.9488 107.347 68.1377 110.955 56.4742 110.955C44.8556 110.955 34.0893 107.391 25.2968 101.306L23.8164 102.915C33.0126 109.347 44.3172 113.128 56.5191 113.128C68.7657 113.128 80.0703 109.303 89.3114 102.871L87.7862 101.22Z" fill="#D3D3D3"/>
<path d="M192.485 23.8164H204.454L227.248 80.3802H214.046L209.57 68.5156H186.913L182.345 80.3802H169.691L192.485 23.8164ZM190.704 58.7204H205.824L203.494 52.4202C201.85 47.9595 199.84 42.3491 198.378 38.0723H198.241C196.779 42.3491 194.769 48.0055 192.988 52.7421L190.704 58.7204Z" fill="url(#paint3_linear_5_12155)"/>
<path d="M283.812 52.5062C283.812 60.8911 282.678 66.9644 279.502 71.4515C275.556 77.0716 268.389 80.3802 259.454 80.3802C250.518 80.3802 243.26 77.0716 239.36 71.3155C236.366 66.8738 235.187 60.7551 235.187 52.8235V23.8164H247.434V52.3702C247.434 58.3076 247.978 61.9335 249.611 64.517C251.289 67.1911 254.555 69.3666 259.771 69.3666C264.625 69.3666 267.8 67.599 269.614 64.7436C271.292 62.1148 272.018 58.2623 272.018 52.4156V23.8164H283.812V52.5062Z" fill="url(#paint4_linear_5_12155)"/>
<path d="M300.728 23.8164H318.5C325.222 23.8164 331.576 24.7354 336.088 27.5842C340.232 30.1574 342.902 34.3848 342.902 40.8636C342.902 48.1237 338.896 54.0512 331.392 56.4865L347.322 80.3802H333.003L318.684 58.0488H313.113V80.3343H300.682V23.8164H300.728ZM319.421 48.721C322.782 48.721 325.36 48.3534 327.248 47.3885C329.366 46.2857 330.471 44.4018 330.471 41.6907C330.471 39.0257 329.55 37.3255 327.248 36.1308C325.314 35.12 322.229 34.6605 317.947 34.6605H313.159V48.721H319.421Z" fill="url(#paint5_linear_5_12155)"/>
<path d="M380.039 23.8164H392.007L414.801 80.3802H401.6L397.123 68.5156H374.466L369.898 80.3802H357.245L380.039 23.8164ZM378.258 58.7204H393.378L391.048 52.3742C389.404 47.9135 387.394 42.3031 385.932 38.0263H385.749C384.287 42.3031 382.278 47.9595 380.496 52.6961L378.258 58.7204Z" fill="url(#paint6_linear_5_12155)"/>
<path d="M410.961 29.0299C411.566 29.4298 412.299 29.652 412.774 29.652C413.205 29.652 413.55 29.4742 413.55 29.0299C413.55 28.4967 413.032 28.4523 412.299 28.1857C411.522 27.9191 410.832 27.5192 410.832 26.5416C410.832 25.4752 411.609 24.8087 412.817 24.8087C413.378 24.8087 414.025 24.942 414.543 25.2086V26.4528C413.938 26.0529 413.248 25.8751 412.817 25.8751C412.385 25.8751 412.083 26.0529 412.083 26.4083C412.083 26.9415 412.601 26.9415 413.291 27.2081C414.154 27.4747 414.801 27.9191 414.801 28.941C414.801 30.0519 413.982 30.7628 412.774 30.7628C412.213 30.7628 411.522 30.6295 411.005 30.3185V29.0299H410.961Z" fill="#95005A"/>
<path d="M418.89 28.198C418.622 27.7858 418.308 27.3278 418.04 26.9156C418.04 27.3278 418.04 27.9232 418.04 28.3812V30.7628H416.786V24.8087H418.04L419.786 27.3278L421.531 24.8087H422.74V30.7628H421.442V28.3812C421.442 27.8774 421.442 27.3278 421.442 26.9156C421.173 27.3278 420.86 27.7858 420.591 28.198L419.741 29.4346L418.89 28.198Z" fill="#95005A"/>
<path fill-rule="evenodd" clip-rule="evenodd" d="M425.302 110.977C425.302 118.009 419.87 123.711 413.17 123.711C406.47 123.711 401.038 118.009 401.038 110.977C401.038 103.944 406.47 98.2425 413.17 98.2425C413.807 98.2566 414.442 98.3122 415.073 98.409L414.042 99.8239H413.17C410.488 99.7883 407.903 100.874 405.984 102.841C404.065 104.808 402.97 107.496 402.941 110.311C402.941 116.24 407.521 121.047 413.17 121.047C418.819 121.047 423.399 116.24 423.399 110.311C423.37 105.962 420.782 102.085 416.897 100.573L416.5 98.8251C421.702 100.34 425.302 105.31 425.302 110.977ZM417.452 111.642L415.231 101.322L409.126 109.645L417.452 111.642ZM300.327 116.313C298.981 114.901 298.24 112.974 298.275 110.977C298.279 106.828 301.459 103.453 305.411 103.403C307.335 103.343 309.195 104.125 310.548 105.561C311.901 106.997 312.625 108.959 312.548 110.977C312.548 115.114 309.352 118.467 305.411 118.467C303.508 118.504 301.673 117.726 300.327 116.313ZM305.49 105.816C302.794 105.816 300.971 108.313 300.971 110.977C300.971 113.973 302.794 116.137 305.49 116.054C306.739 116.035 307.927 115.483 308.78 114.525C309.633 113.567 310.077 112.286 310.01 110.977C310.01 107.897 308.186 105.816 305.49 105.816ZM282.654 110.977C282.58 112.986 283.308 114.937 284.663 116.359C286.017 117.781 287.876 118.545 289.791 118.467C291.948 118.533 293.997 117.473 295.262 115.637L295.341 115.554L293.359 113.806L293.279 113.973C292.593 115.362 291.2 116.206 289.711 116.137C287.015 116.137 285.192 113.89 285.192 110.977C285.125 109.659 285.567 108.369 286.417 107.398C287.268 106.427 288.455 105.857 289.711 105.816C291.156 105.844 292.494 106.624 293.279 107.897L293.359 107.98L295.341 106.316L295.262 106.233C293.9 104.486 291.861 103.477 289.711 103.486C287.824 103.481 286.015 104.272 284.688 105.68C283.361 107.088 282.629 108.996 282.654 110.977ZM383.197 118.134V112.142L378.202 103.819H381.136L384.466 109.562L387.955 103.819H390.73L385.735 112.142V118.134H383.197ZM336.811 118.134V103.819H339.983C343.709 103.819 345.692 105.567 345.692 108.396C345.692 111.393 343.392 112.891 340.062 112.891C339.931 112.891 339.8 112.866 339.682 112.843C339.586 112.824 339.499 112.808 339.428 112.808V118.134H336.811ZM340.062 105.983H339.428V110.56C339.63 110.641 339.847 110.669 340.062 110.644C342.124 110.644 343.075 109.811 343.075 108.313C343.075 106.815 342.203 105.983 340.062 105.983ZM323.807 118.55L319.525 110.394L317.939 118.218H315.402L318.812 103.569L323.886 113.224L328.802 103.569L332.371 118.134H329.675L328.01 110.394L323.807 118.55ZM249.51 112.308L240.471 103.569V118.218H242.929V109.728L252.047 118.55V103.819H249.51V112.308ZM231.907 118.134V103.819H234.524V118.134H231.907ZM221.916 103.486L228.577 118.134H225.722L224.453 115.055H219.22L217.872 118.134H215.255L221.916 103.486ZM221.916 108.646L220.172 112.808H223.502L221.916 108.646ZM212.48 107.564C212.49 108.853 211.775 110.028 210.656 110.56C212.193 110.917 213.303 112.322 213.352 113.973C213.352 116.636 211.449 118.134 207.961 118.134H204.075V103.819H207.326C210.577 103.819 212.48 105.067 212.48 107.564ZM210.656 114.056C210.656 112.558 209.626 112.059 207.802 112.059H206.692V115.97H207.802C209.705 115.97 210.656 115.388 210.656 114.056ZM206.692 109.895V105.983H207.168C209.071 105.983 210.022 106.482 210.022 107.98C210.022 109.478 209.071 109.895 207.247 109.895H206.692ZM271.553 118.218H274.566C274.566 118.218 272.267 115.471 271.87 114.972C272.188 114.555 274.17 111.393 274.17 111.393H271.712L270.522 113.307L268.382 110.727C270.205 109.728 271.315 108.313 271.315 106.815C271.315 104.818 269.65 103.486 267.509 103.486C265.131 103.486 263.545 104.984 263.545 106.982C263.63 108.275 264.166 109.49 265.051 110.394C263.624 111.226 262.355 112.475 262.355 114.555C262.355 116.803 264.1 118.55 266.637 118.55C268.088 118.577 269.477 117.939 270.443 116.803L271.553 118.218ZM265.923 107.065C265.91 106.619 266.073 106.188 266.373 105.872C266.674 105.557 267.085 105.386 267.509 105.4C267.904 105.367 268.293 105.511 268.581 105.797C268.868 106.083 269.026 106.483 269.016 106.898C269.016 107.897 268.064 108.646 267.113 109.146C266.469 108.645 266.041 107.896 265.923 107.065ZM266.875 116.303C267.711 116.315 268.503 115.914 269.016 115.221L266.32 111.975H266.241C265.417 112.445 264.878 113.324 264.813 114.306C264.804 114.868 265.024 115.408 265.418 115.789C265.811 116.171 266.342 116.358 266.875 116.303ZM363.533 103.569L372.572 112.308V103.819H375.109V118.55L366.07 109.728V118.134H363.533V103.569ZM353.542 103.486L360.202 118.134H357.348L356.079 115.055H350.846L349.498 118.134H346.881L353.542 103.486ZM351.797 112.808H355.128L353.542 108.646L351.797 112.808Z" fill="#828282"/>
<path fill-rule="evenodd" clip-rule="evenodd" d="M176.273 110.563C177.391 110.03 178.106 108.856 178.096 107.566C178.096 105.07 176.193 103.821 172.942 103.821H169.691V118.137H173.577C177.066 118.137 178.969 116.638 178.969 113.975C178.919 112.325 177.809 110.92 176.273 110.563ZM173.418 112.061C175.242 112.061 176.273 112.56 176.273 114.058C176.273 115.39 175.321 115.972 173.418 115.972H172.308V112.061H173.418ZM172.308 105.985V109.897H172.863C174.687 109.897 175.638 109.481 175.638 107.982C175.638 106.484 174.687 105.985 172.784 105.985H172.308Z" fill="#828282"/>
<path fill-rule="evenodd" clip-rule="evenodd" d="M185.716 112.144V118.137H188.254V112.144L193.249 103.821H190.474L186.985 109.564L183.655 103.821H180.721L185.716 112.144Z" fill="#828282"/>
<defs>
<linearGradient id="paint0_linear_5_12155" x1="38.5735" y1="2.91142" x2="237.923" y2="229.389" gradientUnits="userSpaceOnUse">
<stop stop-color="#DE0000"/>
<stop offset="1" stop-color="#FFCA00"/>
</linearGradient>
<linearGradient id="paint1_linear_5_12155" x1="50.819" y1="5.83847" x2="22.8246" y2="89.8966" gradientUnits="userSpaceOnUse">
<stop stop-color="#DE0000"/>
<stop offset="1" stop-color="#95005A"/>
</linearGradient>
<linearGradient id="paint2_linear_5_12155" x1="29.9185" y1="67.0879" x2="196.002" y2="92.9307" gradientUnits="userSpaceOnUse">
<stop offset="0.00856599" stop-color="#95005A"/>
<stop offset="0.4017" stop-color="#DE0000"/>
<stop offset="1" stop-color="#FFCA00"/>
</linearGradient>
<linearGradient id="paint3_linear_5_12155" x1="162.193" y1="78.8391" x2="312.11" y2="-4.15313" gradientUnits="userSpaceOnUse">
<stop stop-color="#FF6000" stop-opacity="0.75"/>
<stop offset="0.00497598" stop-color="#FD5F01" stop-opacity="0.7512"/>
<stop offset="0.1182" stop-color="#DD411D" stop-opacity="0.7796"/>
<stop offset="0.2398" stop-color="#C32A33" stop-opacity="0.81"/>
<stop offset="0.3738" stop-color="#AF1744" stop-opacity="0.8434"/>
<stop offset="0.5245" stop-color="#A00A51" stop-opacity="0.8811"/>
<stop offset="0.7058" stop-color="#980258" stop-opacity="0.9264"/>
<stop offset="1" stop-color="#95005A"/>
</linearGradient>
<linearGradient id="paint4_linear_5_12155" x1="172.12" y1="96.1628" x2="320.46" y2="13.4258" gradientUnits="userSpaceOnUse">
<stop stop-color="#FF6000" stop-opacity="0.75"/>
<stop offset="0.00497598" stop-color="#FD5F01" stop-opacity="0.7512"/>
<stop offset="0.1182" stop-color="#DD411D" stop-opacity="0.7796"/>
<stop offset="0.2398" stop-color="#C32A33" stop-opacity="0.81"/>
<stop offset="0.3738" stop-color="#AF1744" stop-opacity="0.8434"/>
<stop offset="0.5245" stop-color="#A00A51" stop-opacity="0.8811"/>
<stop offset="0.7058" stop-color="#980258" stop-opacity="0.9264"/>
<stop offset="1" stop-color="#95005A"/>
</linearGradient>
<linearGradient id="paint5_linear_5_12155" x1="187.464" y1="128.027" x2="337.949" y2="43.9915" gradientUnits="userSpaceOnUse">
<stop stop-color="#FF6000" stop-opacity="0.75"/>
<stop offset="0.00497598" stop-color="#FD5F01" stop-opacity="0.7512"/>
<stop offset="0.1182" stop-color="#DD411D" stop-opacity="0.7796"/>
<stop offset="0.2398" stop-color="#C32A33" stop-opacity="0.81"/>
<stop offset="0.3738" stop-color="#AF1744" stop-opacity="0.8434"/>
<stop offset="0.5245" stop-color="#A00A51" stop-opacity="0.8811"/>
<stop offset="0.7058" stop-color="#980258" stop-opacity="0.9264"/>
<stop offset="1" stop-color="#95005A"/>
</linearGradient>
<linearGradient id="paint6_linear_5_12155" x1="206.63" y1="159.122" x2="356.547" y2="76.1293" gradientUnits="userSpaceOnUse">
<stop stop-color="#FF6000" stop-opacity="0.75"/>
<stop offset="0.00497598" stop-color="#FD5F01" stop-opacity="0.7512"/>
<stop offset="0.1182" stop-color="#DD411D" stop-opacity="0.7796"/>
<stop offset="0.2398" stop-color="#C32A33" stop-opacity="0.81"/>
<stop offset="0.3738" stop-color="#AF1744" stop-opacity="0.8434"/>
<stop offset="0.5245" stop-color="#A00A51" stop-opacity="0.8811"/>
<stop offset="0.7058" stop-color="#980258" stop-opacity="0.9264"/>
<stop offset="1" stop-color="#95005A"/>
</linearGradient>
</defs>
</svg>
